<svg width="276" height="72" xmlns="http://www.w3.org/2000/svg" xmlns:xlink="http://www.w3.org/1999/xlink" xml:space="preserve" overflow="hidden"><g><g><path d="M23.453 36.0711C23.453 47.3987 32.636 56.5818 43.9637 56.5818 55.2916 56.5818 64.4742 47.3987 64.4742 36.0711 64.4742 24.7434 55.2916 15.5605 43.9637 15.5605 32.636 15.5605 23.453 24.7434 23.453 36.0711ZM23.453 36.0711C23.453 45.5111 31.1055 53.1636 40.5452 53.1636 49.9849 53.1636 57.6373 45.5111 57.6373 36.0711 57.6373 26.6314 49.9849 18.9789 40.5452 18.9789 31.1055 18.9789 23.453 26.6314 23.453 36.0711ZM23.453 36.0711C23.453 43.6229 29.575 49.7449 37.1268 49.7449 44.6787 49.7449 50.8004 43.6229 50.8004 36.0711 50.8004 28.5193 44.6787 22.3974 37.1268 22.3974 29.575 22.3974 23.453 28.5193 23.453 36.0711ZM33.7798 30.0889C23.9697 24.4251 11.4256 27.7863 5.76173 37.5964 0.0978876 47.4067 3.45908 59.9507 13.2692 65.6142 23.0792 71.2782 35.6234 67.9169 41.2872 58.1071 46.9511 48.2969 43.5899 35.7528 33.7798 30.0889ZM33.7798 30.0889C25.6048 25.3691 15.1513 28.17 10.4314 36.3451 5.71156 44.52 8.51253 54.9738 16.6876 59.6933 24.8627 64.4133 35.3161 61.6124 40.036 53.4373 44.756 45.2622 41.9549 34.8088 33.7798 30.0889ZM33.7798 30.0889C27.2398 26.313 18.877 28.5538 15.1011 35.0939 11.3252 41.634 13.566 49.9969 20.106 53.7724 26.6461 57.5484 35.0088 55.3076 38.7848 48.7676 42.5607 42.2276 40.3199 33.8648 33.7798 30.0889ZM33.8084 41.9109C43.6184 36.2471 46.9796 23.703 41.3158 13.8928 35.6519 4.08277 23.1078 0.721587 13.2977 6.38547 3.4876 12.0493 0.126414 24.5934 5.79027 34.4035 11.4541 44.2136 23.9983 47.5747 33.8084 41.9109ZM33.8084 41.9109C41.9834 37.1911 44.7844 26.7376 40.0645 18.5625 35.3447 10.3875 24.8912 7.58649 16.7161 12.3064 8.54107 17.0262 5.74009 27.4797 10.46 35.6548 15.1798 43.8298 25.6333 46.6307 33.8084 41.9109ZM33.8084 41.9109C40.3484 38.135 42.5892 29.7723 38.8133 23.2322 35.0374 16.6922 26.6747 14.4514 20.1346 18.2273 13.5945 22.0032 11.3537 30.3659 15.1296 36.906 18.9056 43.446 27.2683 45.6867 33.8084 41.9109Z" stroke="#AC891A" stroke-width="0.888889" stroke-linecap="butt" stroke-linejoin="miter" stroke-miterlimit="4" stroke-opacity="0.2" fill="none" fill-rule="nonzero" transform="scale(1.00648 1)"/><path d="M67.8911 36.0712C67.8911 48.3427 57.9427 58.2911 45.6711 58.2911 33.3994 58.2911 23.4512 48.3427 23.4512 36.0712 23.4512 23.7995 33.3994 13.8513 45.6711 13.8513 57.9427 13.8513 67.8911 23.7995 67.8911 36.0712Z" stroke="#AC891A" stroke-width="0.888889" stroke-linecap="butt" stroke-linejoin="miter" stroke-miterlimit="4" stroke-opacity="1" fill="none" fill-rule="nonzero" transform="scale(1.00648 1)"/><path d="M11.5581 68.5751C0.930489 62.4391-2.7108 48.8498 3.42505 38.222 9.56089 27.5944 23.1504 23.9532 33.778 30.089 44.4056 36.2248 48.0467 49.8142 41.911 60.4418 35.7752 71.0693 22.1857 74.7107 11.5581 68.5751Z" stroke="#AC891A" stroke-width="0.888889" stroke-linecap="butt" stroke-linejoin="miter" stroke-miterlimit="4" stroke-opacity="1" fill="none" fill-rule="nonzero" transform="scale(1.00648 1)"/><path d="M11.5867 3.42505C22.2143-2.7108 35.8037 0.930489 41.9396 11.5581 48.0756 22.1857 44.4341 35.7752 33.8065 41.911 23.1789 48.0467 9.58947 44.4056 3.45361 33.778-2.68224 23.1504 0.959049 9.56089 11.5867 3.42505Z" stroke="#AC891A" stroke-width="0.888889" stroke-linecap="butt" stroke-linejoin="miter" stroke-miterlimit="4" stroke-opacity="1" fill="none" fill-rule="nonzero" transform="scale(1.00648 1)"/><path d="M37.1252 36.0712C37.1252 39.8472 34.0642 42.9081 30.2883 42.9081 26.5124 42.9081 23.4514 39.8472 23.4514 36.0712 23.4514 32.2953 26.5124 29.2344 30.2883 29.2344 34.0642 29.2344 37.1252 32.2953 37.1252 36.0712Z" stroke="#BF2914" stroke-width="1.77778" stroke-linecap="butt" stroke-linejoin="miter" stroke-miterlimit="4" stroke-opacity="1" fill="none" fill-rule="nonzero" transform="scale(1.00648 1)"/><path d="M96.0053 25.6 98.0249 25.6 98.0249 33.1947C97.0956 34.0101 95.996 34.6359 94.7253 35.072 93.4547 35.5081 92.1178 35.7262 90.7147 35.7262 88.7236 35.7262 86.9316 35.2901 85.3387 34.4178 83.7458 33.5455 82.4942 32.3413 81.584 30.8053 80.6738 29.2504 80.2187 27.5152 80.2187 25.6 80.2187 23.6848 80.6738 21.9591 81.584 20.4231 82.4942 18.8681 83.7458 17.6545 85.3387 16.7822 86.9316 15.9099 88.7329 15.4738 90.7431 15.4738 92.26 15.4738 93.6538 15.7203 94.9244 16.2133 96.1951 16.6874 97.2662 17.3985 98.1387 18.3467L96.8302 19.6836C95.2564 18.1286 93.2556 17.3511 90.8284 17.3511 89.2164 17.3511 87.7564 17.7114 86.448 18.432 85.1587 19.1336 84.144 20.1197 83.4044 21.3902 82.6649 22.6418 82.2951 24.045 82.2951 25.6 82.2951 27.155 82.6649 28.5582 83.4044 29.8098 84.144 31.0613 85.1587 32.0474 86.448 32.768 87.7373 33.4886 89.188 33.8489 90.8 33.8489 92.848 33.8489 94.5831 33.3369 96.0053 32.3129L96.0053 25.6ZM112.629 35.7262C110.657 35.7262 108.875 35.2901 107.282 34.4178 105.708 33.5455 104.466 32.3413 103.556 30.8053 102.664 29.2504 102.219 27.5152 102.219 25.6 102.219 23.6848 102.664 21.9591 103.556 20.4231 104.466 18.8681 105.717 17.6545 107.31 16.7822 108.903 15.9099 110.686 15.4738 112.658 15.4738 114.137 15.4738 115.502 15.7203 116.754 16.2133 118.005 16.7064 119.067 17.427 119.94 18.3751L118.603 19.712C117.048 18.1381 115.085 17.3511 112.715 17.3511 111.141 17.3511 109.709 17.7114 108.42 18.432 107.13 19.1526 106.116 20.1387 105.376 21.3902 104.656 22.6418 104.295 24.045 104.295 25.6 104.295 27.155 104.656 28.5582 105.376 29.8098 106.116 31.0613 107.13 32.0474 108.42 32.768 109.709 33.4886 111.141 33.8489 112.715 33.8489 115.104 33.8489 117.067 33.0524 118.603 31.4596L119.94 32.7964C119.067 33.7446 117.996 34.4747 116.725 34.9867 115.474 35.4797 114.108 35.7262 112.629 35.7262ZM132.714 35.7262C130.742 35.7262 128.95 35.2901 127.338 34.4178 125.745 33.5265 124.494 32.3129 123.584 30.7769 122.692 29.2409 122.247 27.5152 122.247 25.6 122.247 23.6848 122.692 21.9591 123.584 20.4231 124.494 18.8871 125.745 17.683 127.338 16.8107 128.95 15.9194 130.742 15.4738 132.714 15.4738 134.686 15.4738 136.459 15.9099 138.033 16.7822 139.626 17.6545 140.878 18.8681 141.788 20.4231 142.698 21.9591 143.153 23.6848 143.153 25.6 143.153 27.5152 142.698 29.2504 141.788 30.8053 140.878 32.3413 139.626 33.5455 138.033 34.4178 136.459 35.2901 134.686 35.7262 132.714 35.7262ZM132.714 33.8489C134.288 33.8489 135.71 33.4981 136.981 32.7964 138.251 32.0759 139.247 31.0898 139.968 29.8382 140.688 28.5677 141.048 27.155 141.048 25.6 141.048 24.045 140.688 22.6418 139.968 21.3902 139.247 20.1197 138.251 19.1336 136.981 18.432 135.71 17.7114 134.288 17.3511 132.714 17.3511 131.14 17.3511 129.708 17.7114 128.419 18.432 127.148 19.1336 126.144 20.1197 125.404 21.3902 124.683 22.6418 124.323 24.045 124.323 25.6 124.323 27.155 124.683 28.5677 125.404 29.8382 126.144 31.0898 127.148 32.0759 128.419 32.7964 129.708 33.4981 131.14 33.8489 132.714 33.8489ZM162.768 15.6444C165.309 15.6444 167.3 16.2512 168.741 17.4649 170.183 18.6785 170.903 20.3472 170.903 22.4711 170.903 24.595 170.183 26.2637 168.741 27.4773 167.3 28.672 165.309 29.2693 162.768 29.2693L157.42 29.2693 157.42 35.5556 155.316 35.5556 155.316 15.6444 162.768 15.6444ZM162.711 27.4204C164.683 27.4204 166.191 26.9938 167.234 26.1404 168.277 25.2681 168.798 24.045 168.798 22.4711 168.798 20.8592 168.277 19.6267 167.234 18.7733 166.191 17.901 164.683 17.4649 162.711 17.4649L157.42 17.4649 157.42 27.4204 162.711 27.4204ZM180.123 20.48C182.076 20.48 183.574 20.973 184.617 21.9591 185.66 22.9262 186.181 24.3674 186.181 26.2827L186.181 35.5556 184.247 35.5556 184.247 33.2231C183.792 34.0006 183.119 34.6074 182.228 35.0436 181.355 35.4797 180.312 35.6978 179.099 35.6978 177.43 35.6978 176.103 35.2996 175.116 34.5031 174.13 33.7067 173.637 32.6542 173.637 31.3458 173.637 30.0752 174.092 29.0512 175.003 28.2738 175.932 27.4963 177.401 27.1076 179.412 27.1076L184.162 27.1076 184.162 26.1973C184.162 24.9079 183.801 23.9312 183.081 23.2676 182.36 22.5849 181.308 22.2436 179.924 22.2436 178.976 22.2436 178.065 22.4048 177.193 22.7271 176.32 23.0305 175.572 23.4572 174.946 24.0071L174.036 22.4996C174.794 21.8548 175.704 21.3618 176.766 21.0204 177.828 20.6601 178.947 20.48 180.123 20.48ZM179.412 34.1049C180.549 34.1049 181.526 33.8489 182.341 33.3369 183.157 32.8059 183.764 32.0474 184.162 31.0613L184.162 28.6151 179.468 28.6151C176.908 28.6151 175.628 29.5064 175.628 31.2889 175.628 32.1612 175.96 32.8533 176.624 33.3653 177.288 33.8584 178.217 34.1049 179.412 34.1049ZM193.601 23.5236C194.075 22.5185 194.776 21.76 195.706 21.248 196.654 20.736 197.82 20.48 199.204 20.48L199.204 22.4427 198.721 22.4142C197.147 22.4142 195.914 22.8978 195.023 23.8649 194.132 24.832 193.686 26.1879 193.686 27.9324L193.686 35.5556 191.667 35.5556 191.667 20.5938 193.601 20.5938 193.601 23.5236ZM211.379 34.6453C211 34.9867 210.526 35.2521 209.957 35.4418 209.407 35.6124 208.828 35.6978 208.222 35.6978 206.819 35.6978 205.738 35.3185 204.979 34.56 204.22 33.8015 203.841 32.7301 203.841 31.3458L203.841 22.3004 201.168 22.3004 201.168 20.5938 203.841 20.5938 203.841 17.3227 205.861 17.3227 205.861 20.5938 210.412 20.5938 210.412 22.3004 205.861 22.3004 205.861 31.232C205.861 32.1232 206.079 32.8059 206.515 33.28 206.97 33.7351 207.615 33.9627 208.449 33.9627 208.867 33.9627 209.265 33.8963 209.644 33.7636 210.042 33.6308 210.384 33.4412 210.668 33.1947L211.379 34.6453ZM222.679 20.48C224.556 20.48 226.044 21.0299 227.144 22.1298 228.263 23.2107 228.823 24.7941 228.823 26.88L228.823 35.5556 226.803 35.5556 226.803 27.0791C226.803 25.5241 226.414 24.339 225.637 23.5236 224.86 22.7081 223.75 22.3004 222.309 22.3004 220.697 22.3004 219.417 22.784 218.469 23.7511 217.54 24.6992 217.075 26.0172 217.075 27.7049L217.075 35.5556 215.056 35.5556 215.056 20.5938 216.99 20.5938 216.99 23.3529C217.54 22.4427 218.298 21.741 219.265 21.248 220.252 20.736 221.389 20.48 222.679 20.48ZM247.389 28.7004 234.873 28.7004C234.987 30.2554 235.584 31.5164 236.665 32.4836 237.746 33.4317 239.112 33.9058 240.761 33.9058 241.69 33.9058 242.544 33.7446 243.321 33.4222 244.099 33.0809 244.772 32.5879 245.341 31.9431L246.479 33.2516C245.815 34.048 244.98 34.6548 243.976 35.072 242.989 35.4892 241.899 35.6978 240.704 35.6978 239.168 35.6978 237.803 35.3754 236.608 34.7307 235.432 34.067 234.513 33.1568 233.849 32 233.185 30.8432 232.854 29.5348 232.854 28.0747 232.854 26.6145 233.167 25.3061 233.792 24.1493 234.437 22.9926 235.309 22.0919 236.409 21.4471 237.528 20.8024 238.78 20.48 240.164 20.48 241.548 20.48 242.79 20.8024 243.89 21.4471 244.99 22.0919 245.853 22.9926 246.479 24.1493 247.104 25.2871 247.417 26.5956 247.417 28.0747L247.389 28.7004ZM240.164 22.2151C238.723 22.2151 237.509 22.6797 236.523 23.6089 235.556 24.5191 235.006 25.7138 234.873 27.1929L245.483 27.1929C245.35 25.7138 244.791 24.5191 243.805 23.6089 242.838 22.6797 241.624 22.2151 240.164 22.2151ZM253.462 23.5236C253.936 22.5185 254.638 21.76 255.567 21.248 256.515 20.736 257.681 20.48 259.066 20.48L259.066 22.4427 258.582 22.4142C257.008 22.4142 255.776 22.8978 254.884 23.8649 253.993 24.832 253.548 26.1879 253.548 27.9324L253.548 35.5556 251.528 35.5556 251.528 20.5938 253.462 20.5938 253.462 23.5236ZM266.844 35.6978C265.63 35.6978 264.464 35.5271 263.345 35.1858 262.245 34.8255 261.383 34.3799 260.757 33.8489L261.667 32.256C262.293 32.749 263.08 33.1568 264.028 33.4791 264.976 33.7825 265.962 33.9342 266.986 33.9342 268.352 33.9342 269.356 33.7256 270.001 33.3084 270.665 32.8723 270.997 32.2655 270.997 31.488 270.997 30.9381 270.817 30.5114 270.456 30.208 270.096 29.8856 269.641 29.6486 269.091 29.4969 268.541 29.3262 267.811 29.165 266.901 29.0133 265.687 28.7858 264.711 28.5582 263.971 28.3307 263.232 28.0841 262.596 27.6764 262.065 27.1076 261.553 26.5387 261.297 25.7517 261.297 24.7467 261.297 23.4951 261.819 22.4711 262.862 21.6747 263.905 20.8782 265.356 20.48 267.214 20.48 268.181 20.48 269.148 20.6128 270.115 20.8782 271.082 21.1248 271.879 21.4566 272.504 21.8738L271.623 23.4951C270.39 22.6418 268.92 22.2151 267.214 22.2151 265.924 22.2151 264.948 22.4427 264.284 22.8978 263.639 23.3529 263.317 23.9502 263.317 24.6898 263.317 25.2587 263.497 25.7138 263.857 26.0551 264.236 26.3964 264.701 26.6524 265.251 26.8231 265.801 26.9748 266.56 27.136 267.527 27.3067 268.721 27.5342 269.679 27.7618 270.4 27.9893 271.12 28.2169 271.736 28.6056 272.248 29.1556 272.76 29.7055 273.016 30.464 273.016 31.4311 273.016 32.7396 272.467 33.7825 271.367 34.56 270.286 35.3185 268.778 35.6978 266.844 35.6978Z" fill="#02073E" fill-rule="nonzero" fill-opacity="1" transform="scale(1.00648 1)"/><path d="M85.7729 59.6196C85.0333 59.6196 84.3649 59.456 83.7676 59.1289 83.1773 58.8018 82.7116 58.3502 82.3702 57.7742 82.036 57.1911 81.8689 56.5404 81.8689 55.8222 81.8689 55.104 82.036 54.4569 82.3702 53.8809 82.7116 53.2978 83.1809 52.8427 83.7782 52.5156 84.3756 52.1884 85.044 52.0249 85.7836 52.0249 86.3382 52.0249 86.8502 52.1173 87.3196 52.3022 87.7889 52.4871 88.1871 52.7573 88.5142 53.1129L88.0129 53.6142C87.4298 53.024 86.6938 52.7289 85.8049 52.7289 85.2147 52.7289 84.6778 52.864 84.1942 53.1342 83.7107 53.4044 83.3302 53.7742 83.0529 54.2436 82.7827 54.7129 82.6476 55.2391 82.6476 55.8222 82.6476 56.4053 82.7827 56.9316 83.0529 57.4009 83.3302 57.8702 83.7107 58.24 84.1942 58.5102 84.6778 58.7804 85.2147 58.9156 85.8049 58.9156 86.7009 58.9156 87.4369 58.6169 88.0129 58.0196L88.5142 58.5209C88.1871 58.8764 87.7853 59.1502 87.3089 59.3422 86.8396 59.5271 86.3276 59.6196 85.7729 59.6196ZM92.4004 59.6089C91.86 59.6089 91.3729 59.488 90.9391 59.2462 90.5053 58.9973 90.164 58.656 89.9151 58.2222 89.6662 57.7884 89.5418 57.2978 89.5418 56.7502 89.5418 56.2027 89.6662 55.712 89.9151 55.2782 90.164 54.8444 90.5053 54.5067 90.9391 54.2649 91.3729 54.0231 91.86 53.9022 92.4004 53.9022 92.9409 53.9022 93.428 54.0231 93.8618 54.2649 94.2956 54.5067 94.6333 54.8444 94.8751 55.2782 95.124 55.712 95.2485 56.2027 95.2485 56.7502 95.2485 57.2978 95.124 57.7884 94.8751 58.2222 94.6333 58.656 94.2956 58.9973 93.8618 59.2462 93.428 59.488 92.9409 59.6089 92.4004 59.6089ZM92.4004 58.9369C92.7987 58.9369 93.1542 58.848 93.4671 58.6702 93.7871 58.4853 94.036 58.2258 94.2138 57.8916 94.3916 57.5573 94.4804 57.1769 94.4804 56.7502 94.4804 56.3236 94.3916 55.9431 94.2138 55.6089 94.036 55.2747 93.7871 55.0187 93.4671 54.8409 93.1542 54.656 92.7987 54.5636 92.4004 54.5636 92.0022 54.5636 91.6431 54.656 91.3231 54.8409 91.0102 55.0187 90.7613 55.2747 90.5764 55.6089 90.3987 55.9431 90.3098 56.3236 90.3098 56.7502 90.3098 57.1769 90.3987 57.5573 90.5764 57.8916 90.7613 58.2258 91.0102 58.4853 91.3231 58.6702 91.6431 58.848 92.0022 58.9369 92.4004 58.9369ZM97.1147 51.6409 97.872 51.6409 97.872 59.5556 97.1147 59.5556 97.1147 51.6409ZM100.299 51.6409 101.056 51.6409 101.056 59.5556 100.299 59.5556 100.299 51.6409ZM105.446 53.9022C106.179 53.9022 106.74 54.0871 107.132 54.4569 107.523 54.8196 107.718 55.36 107.718 56.0782L107.718 59.5556 106.993 59.5556 106.993 58.6809C106.822 58.9724 106.57 59.2 106.236 59.3636 105.908 59.5271 105.517 59.6089 105.062 59.6089 104.436 59.6089 103.939 59.4596 103.569 59.1609 103.199 58.8622 103.014 58.4676 103.014 57.9769 103.014 57.5004 103.185 57.1164 103.526 56.8249 103.875 56.5333 104.426 56.3876 105.18 56.3876L106.961 56.3876 106.961 56.0462C106.961 55.5627 106.826 55.1964 106.556 54.9476 106.285 54.6916 105.891 54.5636 105.372 54.5636 105.016 54.5636 104.675 54.624 104.348 54.7449 104.02 54.8587 103.74 55.0187 103.505 55.2249L103.164 54.6596C103.448 54.4178 103.789 54.2329 104.188 54.1049 104.586 53.9698 105.005 53.9022 105.446 53.9022ZM105.18 59.0116C105.606 59.0116 105.972 58.9156 106.278 58.7236 106.584 58.5244 106.812 58.24 106.961 57.8702L106.961 56.9529 105.201 56.9529C104.241 56.9529 103.761 57.2871 103.761 57.9556 103.761 58.2827 103.885 58.5422 104.134 58.7342 104.383 58.9191 104.732 59.0116 105.18 59.0116ZM112.986 53.9022C113.512 53.9022 113.988 54.0231 114.415 54.2649 114.842 54.4996 115.176 54.8338 115.418 55.2676 115.66 55.7013 115.78 56.1956 115.78 56.7502 115.78 57.3049 115.66 57.7991 115.418 58.2329 115.176 58.6667 114.842 59.0044 114.415 59.2462 113.988 59.488 113.512 59.6089 112.986 59.6089 112.516 59.6089 112.093 59.5093 111.716 59.3102 111.347 59.1111 111.048 58.8231 110.82 58.4462L110.82 59.5556 110.095 59.5556 110.095 51.6409 110.852 51.6409 110.852 55.0116C111.087 54.6489 111.386 54.3751 111.748 54.1902 112.118 53.9982 112.531 53.9022 112.986 53.9022ZM112.932 58.9369C113.324 58.9369 113.679 58.848 113.999 58.6702 114.319 58.4853 114.568 58.2258 114.746 57.8916 114.931 57.5573 115.023 57.1769 115.023 56.7502 115.023 56.3236 114.931 55.9431 114.746 55.6089 114.568 55.2747 114.319 55.0187 113.999 54.8409 113.679 54.656 113.324 54.5636 112.932 54.5636 112.534 54.5636 112.175 54.656 111.855 54.8409 111.542 55.0187 111.293 55.2747 111.108 55.6089 110.931 55.9431 110.842 56.3236 110.842 56.7502 110.842 57.1769 110.931 57.5573 111.108 57.8916 111.293 58.2258 111.542 58.4853 111.855 58.6702 112.175 58.848 112.534 58.9369 112.932 58.9369ZM119.938 59.6089C119.397 59.6089 118.91 59.488 118.476 59.2462 118.043 58.9973 117.701 58.656 117.452 58.2222 117.204 57.7884 117.079 57.2978 117.079 56.7502 117.079 56.2027 117.204 55.712 117.452 55.2782 117.701 54.8444 118.043 54.5067 118.476 54.2649 118.91 54.0231 119.397 53.9022 119.938 53.9022 120.478 53.9022 120.965 54.0231 121.399 54.2649 121.833 54.5067 122.171 54.8444 122.412 55.2782 122.661 55.712 122.786 56.2027 122.786 56.7502 122.786 57.2978 122.661 57.7884 122.412 58.2222 122.171 58.656 121.833 58.9973 121.399 59.2462 120.965 59.488 120.478 59.6089 119.938 59.6089ZM119.938 58.9369C120.336 58.9369 120.692 58.848 121.004 58.6702 121.324 58.4853 121.573 58.2258 121.751 57.8916 121.929 57.5573 122.018 57.1769 122.018 56.7502 122.018 56.3236 121.929 55.9431 121.751 55.6089 121.573 55.2747 121.324 55.0187 121.004 54.8409 120.692 54.656 120.336 54.5636 119.938 54.5636 119.54 54.5636 119.18 54.656 118.86 54.8409 118.548 55.0187 118.299 55.2747 118.114 55.6089 117.936 55.9431 117.847 56.3236 117.847 56.7502 117.847 57.1769 117.936 57.5573 118.114 57.8916 118.299 58.2258 118.548 58.4853 118.86 58.6702 119.18 58.848 119.54 58.9369 119.938 58.9369ZM125.377 55.0436C125.555 54.6667 125.818 54.3822 126.167 54.1902 126.522 53.9982 126.96 53.9022 127.479 53.9022L127.479 54.6382 127.297 54.6276C126.707 54.6276 126.245 54.8089 125.911 55.1716 125.576 55.5342 125.409 56.0427 125.409 56.6969L125.409 59.5556 124.652 59.5556 124.652 53.9449 125.377 53.9449 125.377 55.0436ZM131.122 53.9022C131.855 53.9022 132.416 54.0871 132.808 54.4569 133.199 54.8196 133.394 55.36 133.394 56.0782L133.394 59.5556 132.669 59.5556 132.669 58.6809C132.498 58.9724 132.246 59.2 131.912 59.3636 131.584 59.5271 131.193 59.6089 130.738 59.6089 130.112 59.6089 129.615 59.4596 129.245 59.1609 128.875 58.8622 128.69 58.4676 128.69 57.9769 128.69 57.5004 128.861 57.1164 129.202 56.8249 129.551 56.5333 130.102 56.3876 130.856 56.3876L132.637 56.3876 132.637 56.0462C132.637 55.5627 132.502 55.1964 132.232 54.9476 131.961 54.6916 131.567 54.5636 131.048 54.5636 130.692 54.5636 130.351 54.624 130.024 54.7449 129.696 54.8587 129.416 55.0187 129.181 55.2249L128.84 54.6596C129.124 54.4178 129.465 54.2329 129.864 54.1049 130.262 53.9698 130.681 53.9022 131.122 53.9022ZM130.856 59.0116C131.282 59.0116 131.648 58.9156 131.954 58.7236 132.26 58.5244 132.488 58.24 132.637 57.8702L132.637 56.9529 130.877 56.9529C129.917 56.9529 129.437 57.2871 129.437 57.9556 129.437 58.2827 129.561 58.5422 129.81 58.7342 130.059 58.9191 130.408 59.0116 130.856 59.0116ZM138.726 59.2142C138.584 59.3422 138.406 59.4418 138.192 59.5129 137.986 59.5769 137.769 59.6089 137.542 59.6089 137.016 59.6089 136.61 59.4667 136.326 59.1822 136.041 58.8978 135.899 58.496 135.899 57.9769L135.899 54.5849 134.896 54.5849 134.896 53.9449 135.899 53.9449 135.899 52.7182 136.656 52.7182 136.656 53.9449 138.363 53.9449 138.363 54.5849 136.656 54.5849 136.656 57.9342C136.656 58.2684 136.738 58.5244 136.902 58.7022 137.072 58.8729 137.314 58.9582 137.627 58.9582 137.784 58.9582 137.933 58.9333 138.075 58.8836 138.224 58.8338 138.352 58.7627 138.459 58.6702L138.726 59.2142ZM140.424 53.9449 141.182 53.9449 141.182 59.5556 140.424 59.5556 140.424 53.9449ZM140.808 52.7182C140.652 52.7182 140.52 52.6649 140.414 52.5582 140.307 52.4516 140.254 52.3236 140.254 52.1742 140.254 52.032 140.307 51.9076 140.414 51.8009 140.52 51.6942 140.652 51.6409 140.808 51.6409 140.965 51.6409 141.096 51.6942 141.203 51.8009 141.31 51.9004 141.363 52.0213 141.363 52.1636 141.363 52.32 141.31 52.4516 141.203 52.5582 141.096 52.6649 140.965 52.7182 140.808 52.7182ZM145.902 59.6089C145.362 59.6089 144.875 59.488 144.441 59.2462 144.007 58.9973 143.666 58.656 143.417 58.2222 143.168 57.7884 143.044 57.2978 143.044 56.7502 143.044 56.2027 143.168 55.712 143.417 55.2782 143.666 54.8444 144.007 54.5067 144.441 54.2649 144.875 54.0231 145.362 53.9022 145.902 53.9022 146.443 53.9022 146.93 54.0231 147.364 54.2649 147.797 54.5067 148.135 54.8444 148.377 55.2782 148.626 55.712 148.75 56.2027 148.75 56.7502 148.75 57.2978 148.626 57.7884 148.377 58.2222 148.135 58.656 147.797 58.9973 147.364 59.2462 146.93 59.488 146.443 59.6089 145.902 59.6089ZM145.902 58.9369C146.3 58.9369 146.656 58.848 146.969 58.6702 147.289 58.4853 147.538 58.2258 147.716 57.8916 147.893 57.5573 147.982 57.1769 147.982 56.7502 147.982 56.3236 147.893 55.9431 147.716 55.6089 147.538 55.2747 147.289 55.0187 146.969 54.8409 146.656 54.656 146.3 54.5636 145.902 54.5636 145.504 54.5636 145.145 54.656 144.825 54.8409 144.512 55.0187 144.263 55.2747 144.078 55.6089 143.9 55.9431 143.812 56.3236 143.812 56.7502 143.812 57.1769 143.9 57.5573 144.078 57.8916 144.263 58.2258 144.512 58.4853 144.825 58.6702 145.145 58.848 145.504 58.9369 145.902 58.9369ZM153.475 53.9022C154.179 53.9022 154.737 54.1084 155.15 54.5209 155.569 54.9262 155.779 55.52 155.779 56.3022L155.779 59.5556 155.022 59.5556 155.022 56.3769C155.022 55.7938 154.876 55.3493 154.584 55.0436 154.293 54.7378 153.877 54.5849 153.336 54.5849 152.732 54.5849 152.252 54.7662 151.896 55.1289 151.548 55.4844 151.374 55.9787 151.374 56.6116L151.374 59.5556 150.616 59.5556 150.616 53.9449 151.342 53.9449 151.342 54.9796C151.548 54.6382 151.832 54.3751 152.195 54.1902 152.565 53.9982 152.992 53.9022 153.475 53.9022ZM164.222 59.2142C164.08 59.3422 163.902 59.4418 163.688 59.5129 163.482 59.5769 163.265 59.6089 163.038 59.6089 162.512 59.6089 162.106 59.4667 161.822 59.1822 161.537 58.8978 161.395 58.496 161.395 57.9769L161.395 54.5849 160.392 54.5849 160.392 53.9449 161.395 53.9449 161.395 52.7182 162.152 52.7182 162.152 53.9449 163.859 53.9449 163.859 54.5849 162.152 54.5849 162.152 57.9342C162.152 58.2684 162.234 58.5244 162.398 58.7022 162.568 58.8729 162.81 58.9582 163.123 58.9582 163.28 58.9582 163.429 58.9333 163.571 58.8836 163.72 58.8338 163.848 58.7627 163.955 58.6702L164.222 59.2142ZM168.779 53.9022C169.483 53.9022 170.041 54.1084 170.454 54.5209 170.873 54.9262 171.083 55.52 171.083 56.3022L171.083 59.5556 170.326 59.5556 170.326 56.3769C170.326 55.7938 170.18 55.3493 169.888 55.0436 169.597 54.7378 169.181 54.5849 168.64 54.5849 168.036 54.5849 167.556 54.7662 167.2 55.1289 166.852 55.4844 166.678 55.9787 166.678 56.6116L166.678 59.5556 165.92 59.5556 165.92 51.6409 166.678 51.6409 166.678 54.9262C166.884 54.5991 167.168 54.3467 167.531 54.1689 167.894 53.9911 168.31 53.9022 168.779 53.9022ZM175.422 53.9022C176.154 53.9022 176.716 54.0871 177.107 54.4569 177.498 54.8196 177.694 55.36 177.694 56.0782L177.694 59.5556 176.968 59.5556 176.968 58.6809C176.798 58.9724 176.545 59.2 176.211 59.3636 175.884 59.5271 175.493 59.6089 175.038 59.6089 174.412 59.6089 173.914 59.4596 173.544 59.1609 173.175 58.8622 172.99 58.4676 172.99 57.9769 172.99 57.5004 173.16 57.1164 173.502 56.8249 173.85 56.5333 174.401 56.3876 175.155 56.3876L176.936 56.3876 176.936 56.0462C176.936 55.5627 176.801 55.1964 176.531 54.9476 176.261 54.6916 175.866 54.5636 175.347 54.5636 174.992 54.5636 174.65 54.624 174.323 54.7449 173.996 54.8587 173.715 55.0187 173.48 55.2249L173.139 54.6596C173.424 54.4178 173.765 54.2329 174.163 54.1049 174.561 53.9698 174.981 53.9022 175.422 53.9022ZM175.155 59.0116C175.582 59.0116 175.948 58.9156 176.254 58.7236 176.56 58.5244 176.787 58.24 176.936 57.8702L176.936 56.9529 175.176 56.9529C174.216 56.9529 173.736 57.2871 173.736 57.9556 173.736 58.2827 173.861 58.5422 174.11 58.7342 174.359 58.9191 174.707 59.0116 175.155 59.0116ZM183.025 59.2142C182.883 59.3422 182.705 59.4418 182.492 59.5129 182.286 59.5769 182.069 59.6089 181.841 59.6089 181.315 59.6089 180.91 59.4667 180.625 59.1822 180.341 58.8978 180.199 58.496 180.199 57.9769L180.199 54.5849 179.196 54.5849 179.196 53.9449 180.199 53.9449 180.199 52.7182 180.956 52.7182 180.956 53.9449 182.663 53.9449 182.663 54.5849 180.956 54.5849 180.956 57.9342C180.956 58.2684 181.038 58.5244 181.201 58.7022 181.372 58.8729 181.614 58.9582 181.927 58.9582 182.083 58.9582 182.232 58.9333 182.375 58.8836 182.524 58.8338 182.652 58.7627 182.759 58.6702L183.025 59.2142ZM190.726 53.9022C191.252 53.9022 191.729 54.0231 192.156 54.2649 192.582 54.4996 192.916 54.8338 193.158 55.2676 193.4 55.7013 193.521 56.1956 193.521 56.7502 193.521 57.312 193.4 57.8098 193.158 58.2436 192.916 58.6773 192.582 59.0151 192.156 59.2569 191.736 59.4916 191.26 59.6089 190.726 59.6089 190.271 59.6089 189.859 59.5164 189.489 59.3316 189.126 59.1396 188.828 58.8622 188.593 58.4996L188.593 61.6249 187.836 61.6249 187.836 53.9449 188.561 53.9449 188.561 55.0542C188.788 54.6844 189.087 54.4 189.457 54.2009 189.834 54.0018 190.257 53.9022 190.726 53.9022ZM190.673 58.9369C191.064 58.9369 191.42 58.848 191.74 58.6702 192.06 58.4853 192.308 58.2258 192.486 57.8916 192.671 57.5573 192.764 57.1769 192.764 56.7502 192.764 56.3236 192.671 55.9467 192.486 55.6196 192.308 55.2853 192.06 55.0258 191.74 54.8409 191.42 54.656 191.064 54.5636 190.673 54.5636 190.275 54.5636 189.916 54.656 189.596 54.8409 189.283 55.0258 189.034 55.2853 188.849 55.6196 188.671 55.9467 188.582 56.3236 188.582 56.7502 188.582 57.1769 188.671 57.5573 188.849 57.8916 189.034 58.2258 189.283 58.4853 189.596 58.6702 189.916 58.848 190.275 58.9369 190.673 58.9369ZM197.678 59.6089C197.138 59.6089 196.651 59.488 196.217 59.2462 195.783 58.9973 195.442 58.656 195.193 58.2222 194.944 57.7884 194.82 57.2978 194.82 56.7502 194.82 56.2027 194.944 55.712 195.193 55.2782 195.442 54.8444 195.783 54.5067 196.217 54.2649 196.651 54.0231 197.138 53.9022 197.678 53.9022 198.219 53.9022 198.706 54.0231 199.14 54.2649 199.573 54.5067 199.911 54.8444 200.153 55.2782 200.402 55.712 200.526 56.2027 200.526 56.7502 200.526 57.2978 200.402 57.7884 200.153 58.2222 199.911 58.656 199.573 58.9973 199.14 59.2462 198.706 59.488 198.219 59.6089 197.678 59.6089ZM197.678 58.9369C198.076 58.9369 198.432 58.848 198.745 58.6702 199.065 58.4853 199.314 58.2258 199.492 57.8916 199.669 57.5573 199.758 57.1769 199.758 56.7502 199.758 56.3236 199.669 55.9431 199.492 55.6089 199.314 55.2747 199.065 55.0187 198.745 54.8409 198.432 54.656 198.076 54.5636 197.678 54.5636 197.28 54.5636 196.921 54.656 196.601 54.8409 196.288 55.0187 196.039 55.2747 195.854 55.6089 195.676 55.9431 195.588 56.3236 195.588 56.7502 195.588 57.1769 195.676 57.5573 195.854 57.8916 196.039 58.2258 196.288 58.4853 196.601 58.6702 196.921 58.848 197.28 58.9369 197.678 58.9369ZM210.471 53.9449 208.348 59.5556 207.633 59.5556 205.863 54.9582 204.092 59.5556 203.377 59.5556 201.265 53.9449 201.991 53.9449 203.751 58.7129 205.553 53.9449 206.204 53.9449 207.996 58.7129 209.777 53.9449 210.471 53.9449ZM216.66 56.9849 211.967 56.9849C212.009 57.568 212.233 58.0409 212.639 58.4036 213.044 58.7591 213.556 58.9369 214.175 58.9369 214.523 58.9369 214.843 58.8764 215.135 58.7556 215.426 58.6276 215.679 58.4427 215.892 58.2009L216.319 58.6916C216.07 58.9902 215.757 59.2178 215.38 59.3742 215.01 59.5307 214.601 59.6089 214.153 59.6089 213.577 59.6089 213.065 59.488 212.617 59.2462 212.176 58.9973 211.832 58.656 211.583 58.2222 211.334 57.7884 211.209 57.2978 211.209 56.7502 211.209 56.2027 211.327 55.712 211.561 55.2782 211.803 54.8444 212.13 54.5067 212.543 54.2649 212.962 54.0231 213.432 53.9022 213.951 53.9022 214.47 53.9022 214.936 54.0231 215.348 54.2649 215.76 54.5067 216.084 54.8444 216.319 55.2782 216.553 55.7049 216.671 56.1956 216.671 56.7502L216.66 56.9849ZM213.951 54.5529C213.41 54.5529 212.955 54.7271 212.585 55.0756 212.223 55.4169 212.016 55.8649 211.967 56.4196L215.945 56.4196C215.896 55.8649 215.686 55.4169 215.316 55.0756 214.953 54.7271 214.498 54.5529 213.951 54.5529ZM219.258 55.0436C219.436 54.6667 219.699 54.3822 220.047 54.1902 220.403 53.9982 220.84 53.9022 221.359 53.9022L221.359 54.6382 221.178 54.6276C220.588 54.6276 220.125 54.8089 219.791 55.1716 219.457 55.5342 219.29 56.0427 219.29 56.6969L219.29 59.5556 218.532 59.5556 218.532 53.9449 219.258 53.9449 219.258 55.0436ZM224.596 59.6089C224.141 59.6089 223.704 59.5449 223.284 59.4169 222.872 59.2818 222.548 59.1147 222.313 58.9156L222.655 58.3182C222.889 58.5031 223.184 58.656 223.54 58.7769 223.896 58.8907 224.265 58.9476 224.649 58.9476 225.161 58.9476 225.538 58.8693 225.78 58.7129 226.029 58.5493 226.153 58.3218 226.153 58.0302 226.153 57.824 226.086 57.664 225.951 57.5502 225.816 57.4293 225.645 57.3404 225.439 57.2836 225.232 57.2196 224.959 57.1591 224.617 57.1022 224.162 57.0169 223.796 56.9316 223.519 56.8462 223.241 56.7538 223.003 56.6009 222.804 56.3876 222.612 56.1742 222.516 55.8791 222.516 55.5022 222.516 55.0329 222.712 54.6489 223.103 54.3502 223.494 54.0516 224.038 53.9022 224.735 53.9022 225.097 53.9022 225.46 53.952 225.823 54.0516 226.185 54.144 226.484 54.2684 226.719 54.4249L226.388 55.0329C225.926 54.7129 225.375 54.5529 224.735 54.5529 224.251 54.5529 223.885 54.6382 223.636 54.8089 223.394 54.9796 223.273 55.2036 223.273 55.4809 223.273 55.6942 223.341 55.8649 223.476 55.9929 223.618 56.1209 223.792 56.2169 223.999 56.2809 224.205 56.3378 224.489 56.3982 224.852 56.4622 225.3 56.5476 225.659 56.6329 225.929 56.7182 226.2 56.8036 226.431 56.9493 226.623 57.1556 226.815 57.3618 226.911 57.6462 226.911 58.0089 226.911 58.4996 226.704 58.8907 226.292 59.1822 225.887 59.4667 225.321 59.6089 224.596 59.6089ZM236.937 53.9449 236.937 58.8729C236.937 59.8258 236.702 60.5298 236.233 60.9849 235.771 61.4471 235.07 61.6782 234.132 61.6782 233.612 61.6782 233.118 61.6 232.649 61.4436 232.187 61.2942 231.81 61.0844 231.518 60.8142L231.902 60.2382C232.172 60.48 232.5 60.6684 232.884 60.8036 233.275 60.9387 233.684 61.0062 234.11 61.0062 234.821 61.0062 235.344 60.8391 235.678 60.5049 236.012 60.1778 236.18 59.6658 236.18 58.9689L236.18 58.2542C235.945 58.6098 235.636 58.88 235.252 59.0649 234.875 59.2498 234.455 59.3422 233.993 59.3422 233.467 59.3422 232.987 59.2284 232.553 59.0009 232.126 58.7662 231.788 58.4427 231.54 58.0302 231.298 57.6107 231.177 57.1378 231.177 56.6116 231.177 56.0853 231.298 55.616 231.54 55.2036 231.788 54.7911 232.126 54.4711 232.553 54.2436 232.98 54.016 233.46 53.9022 233.993 53.9022 234.469 53.9022 234.9 53.9982 235.284 54.1902 235.668 54.3822 235.977 54.6596 236.212 55.0222L236.212 53.9449 236.937 53.9449ZM234.068 58.6702C234.473 58.6702 234.839 58.5849 235.166 58.4142 235.493 58.2364 235.746 57.9911 235.924 57.6782 236.108 57.3653 236.201 57.0098 236.201 56.6116 236.201 56.2133 236.108 55.8613 235.924 55.5556 235.746 55.2427 235.493 55.0009 235.166 54.8302 234.846 54.6524 234.48 54.5636 234.068 54.5636 233.662 54.5636 233.296 54.6489 232.969 54.8196 232.649 54.9902 232.396 55.232 232.212 55.5449 232.034 55.8578 231.945 56.2133 231.945 56.6116 231.945 57.0098 232.034 57.3653 232.212 57.6782 232.396 57.9911 232.649 58.2364 232.969 58.4142 233.296 58.5849 233.662 58.6702 234.068 58.6702ZM240.1 55.0436C240.278 54.6667 240.541 54.3822 240.889 54.1902 241.245 53.9982 241.682 53.9022 242.201 53.9022L242.201 54.6382 242.02 54.6276C241.43 54.6276 240.968 54.8089 240.633 55.1716 240.299 55.5342 240.132 56.0427 240.132 56.6969L240.132 59.5556 239.375 59.5556 239.375 53.9449 240.1 53.9449 240.1 55.0436ZM246.134 59.6089C245.594 59.6089 245.107 59.488 244.673 59.2462 244.239 58.9973 243.898 58.656 243.649 58.2222 243.4 57.7884 243.276 57.2978 243.276 56.7502 243.276 56.2027 243.4 55.712 243.649 55.2782 243.898 54.8444 244.239 54.5067 244.673 54.2649 245.107 54.0231 245.594 53.9022 246.134 53.9022 246.675 53.9022 247.162 54.0231 247.596 54.2649 248.029 54.5067 248.367 54.8444 248.609 55.2782 248.858 55.712 248.982 56.2027 248.982 56.7502 248.982 57.2978 248.858 57.7884 248.609 58.2222 248.367 58.656 248.029 58.9973 247.596 59.2462 247.162 59.488 246.675 59.6089 246.134 59.6089ZM246.134 58.9369C246.532 58.9369 246.888 58.848 247.201 58.6702 247.521 58.4853 247.77 58.2258 247.948 57.8916 248.125 57.5573 248.214 57.1769 248.214 56.7502 248.214 56.3236 248.125 55.9431 247.948 55.6089 247.77 55.2747 247.521 55.0187 247.201 54.8409 246.888 54.656 246.532 54.5636 246.134 54.5636 245.736 54.5636 245.377 54.656 245.057 54.8409 244.744 55.0187 244.495 55.2747 244.31 55.6089 244.132 55.9431 244.044 56.3236 244.044 56.7502 244.044 57.1769 244.132 57.5573 244.31 57.8916 244.495 58.2258 244.744 58.4853 245.057 58.6702 245.377 58.848 245.736 58.9369 246.134 58.9369ZM258.927 53.9449 256.804 59.5556 256.089 59.5556 254.319 54.9582 252.548 59.5556 251.833 59.5556 249.721 53.9449 250.447 53.9449 252.207 58.7129 254.009 53.9449 254.66 53.9449 256.452 58.7129 258.233 53.9449 258.927 53.9449ZM263.498 59.2142C263.356 59.3422 263.178 59.4418 262.964 59.5129 262.758 59.5769 262.541 59.6089 262.314 59.6089 261.788 59.6089 261.382 59.4667 261.098 59.1822 260.813 58.8978 260.671 58.496 260.671 57.9769L260.671 54.5849 259.668 54.5849 259.668 53.9449 260.671 53.9449 260.671 52.7182 261.428 52.7182 261.428 53.9449 263.135 53.9449 263.135 54.5849 261.428 54.5849 261.428 57.9342C261.428 58.2684 261.51 58.5244 261.674 58.7022 261.844 58.8729 262.086 58.9582 262.399 58.9582 262.556 58.9582 262.705 58.9333 262.847 58.8836 262.996 58.8338 263.124 58.7627 263.231 58.6702L263.498 59.2142ZM268.055 53.9022C268.759 53.9022 269.317 54.1084 269.73 54.5209 270.149 54.9262 270.359 55.52 270.359 56.3022L270.359 59.5556 269.602 59.5556 269.602 56.3769C269.602 55.7938 269.456 55.3493 269.164 55.0436 268.873 54.7378 268.457 54.5849 267.916 54.5849 267.312 54.5849 266.832 54.7662 266.476 55.1289 266.128 55.4844 265.954 55.9787 265.954 56.6116L265.954 59.5556 265.196 59.5556 265.196 51.6409 265.954 51.6409 265.954 54.9262C266.16 54.5991 266.444 54.3467 266.807 54.1689 267.17 53.9911 267.586 53.9022 268.055 53.9022Z" fill="#02073E" fill-rule="nonzero" fill-opacity="1" transform="scale(1.00648 1)"/></g></g></svg>