<svg width="21" height="21" xmlns="http://www.w3.org/2000/svg" xmlns:xlink="http://www.w3.org/1999/xlink" xml:space="preserve" overflow="hidden"><g><g><path d="M3.9375 2.83735C3.21262 2.83735 2.625 3.42497 2.625 4.14985L2.625 17.2749C2.625 17.9997 3.21262 18.5874 3.9375 18.5874L17.0625 18.5874C17.7873 18.5874 18.375 17.9997 18.375 17.2749L18.375 4.14985C18.375 3.42497 17.7873 2.83735 17.0625 2.83735L3.9375 2.83735ZM7.45566 6.33973C7.46059 7.17644 6.83428 7.69201 6.09108 7.68832 5.39094 7.68463 4.78062 7.12722 4.78432 6.34096 4.78801 5.60144 5.37248 5.00713 6.13168 5.02435 6.90196 5.04158 7.46059 5.60637 7.45566 6.33973ZM10.7447 8.75385 8.53975 8.75385 8.53851 8.75385 8.53851 16.2438 10.869 16.2438 10.869 16.069C10.869 15.7366 10.8687 15.4041 10.8685 15.0715 10.8678 14.1845 10.867 13.2964 10.8715 12.4096 10.8727 12.1943 10.8825 11.9704 10.9379 11.7648 11.1458 10.997 11.8362 10.5011 12.6065 10.623 13.1011 10.7005 13.4284 10.9872 13.5662 11.4536 13.6511 11.7451 13.6893 12.0589 13.693 12.3629 13.7029 13.2795 13.7015 14.1962 13.7001 15.1129 13.6996 15.4365 13.6991 15.7602 13.6991 16.0838L13.6991 16.2425 16.037 16.2425 16.037 16.0629C16.037 15.6674 16.0368 15.272 16.0366 14.8766 16.0361 13.8883 16.0356 12.9 16.0382 11.9113 16.0394 11.4646 15.9915 11.0241 15.882 10.5922 15.7183 9.94989 15.38 9.41832 14.8299 9.03446 14.4399 8.76129 14.0116 8.58531 13.533 8.56562 13.4785 8.56335 13.4235 8.56039 13.3683 8.5574 13.1236 8.54417 12.8748 8.53073 12.6409 8.57792 11.9715 8.71204 11.3834 9.01845 10.9392 9.55859 10.8875 9.62054 10.837 9.68345 10.7617 9.77734L10.7447 9.7986 10.7447 8.75385ZM4.97144 16.2462 7.29087 16.2462 7.29087 8.75875 4.97144 8.75875 4.97144 16.2462Z" fill="#C99203" fill-rule="evenodd" fill-opacity="1"/></g></g></svg>