<svg width="21" height="21" xmlns="http://www.w3.org/2000/svg" xmlns:xlink="http://www.w3.org/1999/xlink" xml:space="preserve" overflow="hidden"><g><g><path d="M10.5066 19.3808C9.27876 19.3808 8.12634 19.1483 7.04952 18.6834 5.97268 18.2185 5.03089 17.5827 4.22414 16.7759 3.41739 15.9692 2.78155 15.0271 2.31664 13.9497 1.85172 12.8722 1.61927 11.719 1.61927 10.4897 1.61927 9.26065 1.85172 8.10708 2.31664 7.02908 2.78155 5.95123 3.41709 5.0125 4.22327 4.21289 5.02943 3.41314 5.97137 2.78008 7.04908 2.3137 8.12678 1.84719 9.28043 1.61392 10.5099 1.61392 11.7393 1.61392 12.8932 1.84704 13.9717 2.31326 15.0499 2.7795 15.9887 3.41219 16.788 4.21136 17.5875 5.01053 18.2204 5.95028 18.6866 7.03061 19.153 8.11094 19.3862 9.26546 19.3862 10.4941 19.3862 11.7225 19.1529 12.8752 18.6863 13.9519 18.2199 15.0287 17.5869 15.9689 16.7871 16.7726 15.9876 17.5762 15.0479 18.2118 13.9682 18.6795 12.8884 19.147 11.7345 19.3808 10.5066 19.3808ZM10.5001 17.8904C12.5171 17.8904 14.2321 17.1989 15.6453 15.8158 17.0584 14.4328 17.7964 12.7532 17.859 10.7771 17.859 10.7398 17.8599 10.7083 17.8616 10.6829 17.8634 10.6575 17.8643 10.6291 17.8643 10.5976 17.7559 10.9349 17.5535 11.2145 17.257 11.4367 16.9607 11.6586 16.6153 11.7696 16.2208 11.7696L14.4971 11.7696C14.0029 11.7696 13.5798 11.5935 13.2279 11.2413 12.876 10.889 12.7 10.4655 12.7 9.9708L12.7 9.07156 9.10577 9.07156 9.10577 7.30798C9.10577 6.81011 9.28191 6.38573 9.63428 6.03486 9.98646 5.68413 10.4099 5.50876 10.9045 5.50876L11.804 5.50876 11.804 5.02751C11.804 4.77551 11.9051 4.46868 12.1072 4.10701 12.3093 3.7455 12.5395 3.5352 12.7978 3.47614 12.4367 3.36458 12.0654 3.27562 11.6837 3.20926 11.3022 3.14276 10.9084 3.10951 10.502 3.10951 8.45498 3.10951 6.71111 3.8257 5.27042 5.25808 3.82987 6.69031 3.10961 8.43761 3.10961 10.5 3.10961 10.514 3.11049 10.527 3.11224 10.5391 3.11399 10.5514 3.11486 10.5645 3.11486 10.5785L6.15549 10.5785C7.14584 10.5785 7.99247 10.9299 8.69539 11.6327 9.39829 12.3356 9.74977 13.1813 9.74977 14.1699L9.74977 15.0686 7.05674 15.0686 7.05674 17.0673C7.57342 17.329 8.1208 17.5317 8.69889 17.6752 9.2771 17.8187 9.87753 17.8904 10.5001 17.8904Z" fill="#C99203" fill-rule="nonzero" fill-opacity="1"/></g></g></svg>